<?xml version="1.0" encoding="utf-8"?>
<!-- Generator: Adobe Illustrator 18.0.0, SVG Export Plug-In . SVG Version: 6.00 Build 0)  -->
<!DOCTYPE svg PUBLIC "-//W3C//DTD SVG 1.1//EN" "http://www.w3.org/Graphics/SVG/1.1/DTD/svg11.dtd">
<svg version="1.1" xmlns="http://www.w3.org/2000/svg" xmlns:xlink="http://www.w3.org/1999/xlink" x="0px" y="0px"
	 viewBox="0 0 1190.6 841.9" enable-background="new 0 0 1190.6 841.9" xml:space="preserve">
<g id="Cercle" display="none">
	<circle display="inline" fill="#18213C" cx="595.3" cy="420.9" r="383.8"/>
</g>
<g id="Nuage">
	<path fill="#18213C" d="M240,236.4c0,0,232.1-409.9,528.5,9.9c0,0,286.4-24.7,256.8,187.7c0,0,330.9,148.2-118.5,192.6
		c0,0-321,256.8-350.7-4.9c0,0-429.7,222.3-301.3-133.3C254.8,488.3-51.4,369.7,240,236.4"/>
</g>
<g id="CompagnieEstSansCiel" display="none">
	<path display="inline" fill="#F7C433" stroke="#F9B233" stroke-width="2" stroke-miterlimit="10" d="M348.3,169.2
		c2.4,3.6,3.1,8.9,2,15.9c-0.3,1.9-0.9,4.8-1.9,8.6c-0.9,3.8-1.5,6.6-1.8,8.6c-0.2,1.4-2.2,2.6-5.8,3.6c-0.9,0.2-2.1,0.4-3.6,0.6
		c-2.2,0.2-3.2-0.1-3.1-0.8c0-0.2,1-4.6,2.9-12.9c1.2-5.3,1.6-9.6,1.2-13.1c-0.5-4.3-1.9-7.1-3.9-8.5c-0.2,0.2-0.3,0.3-0.4,0.3
		c-5.9,5.5-10.2,14.4-12.8,26.7c-1.8,8.5-3,17.9-3.5,28.2c-0.1,7,0,11.1,0.1,12.5c0.7,5.2,2.7,8.6,5.9,10.1c0.7-0.9,1.4-1.9,2.1-3
		c1.6-2.8,3-6.6,4.5-11.4c0.2-0.5,1-1.2,2.6-1.9c1.4-0.7,3-1.2,4.7-1.5c3.8-0.7,5.4-0.3,5,1.1c-1.9,6.5-3.9,11.1-6.1,13.9
		c-2.1,2.7-4.9,4.9-8.3,6.4c-3.4,1.5-6.8,2.1-10.4,2c-6.2-0.3-10.1-3.3-11.7-8.8c-0.8-2.8-1.1-7.9-1.1-15.4
		c0.5-10.3,1.7-19.6,3.3-28c2.5-12.2,6.6-21.5,12.4-27.9c3.7-4.1,8.2-6.8,13.7-8.1C341.3,164.6,345.9,165.6,348.3,169.2z"/>
	<path display="inline" fill="#F7C433" stroke="#F9B233" stroke-width="2" stroke-miterlimit="10" d="M398.4,189.9
		c5.4,3,8.4,8.4,8.8,16.4c0.3,5.9-0.7,12.3-3,19.3c-2.5,7.5-5.8,13.3-9.9,17.5c-2.5,2.5-5.6,4.5-9.3,5.9c-3.8,1.4-7.4,1.9-10.8,1.5
		c-3.6-0.5-5.7-3.4-6.2-8.7c-0.5-4.6,0-10.5,1.5-17.7c1.4-6.7,3.2-12.8,5.4-18.3c2.3-5.7,4.9-9.5,7.6-11.4c1.1-0.7,2.5-1.3,4.2-1.8
		c0.9-0.8,2.1-1.4,3.6-1.9C394.2,189.2,396.8,189,398.4,189.9z M389.7,233c3.4-7.9,5-15.5,4.7-22.6c-0.2-5.7-1.6-10.2-4.1-13.2
		c-0.7,1.2-1.4,2.5-2.1,4c-1.8,3.8-3.3,8.1-4.6,12.9c-3.2,11.4-4.2,20.2-3,26.2c0.4,1.9,1,3.3,1.7,4.2c0.7-0.7,1.4-1.5,2-2.2
		C386.4,239.6,388.2,236.5,389.7,233z"/>
	<path display="inline" fill="#F7C433" stroke="#F9B233" stroke-width="2" stroke-miterlimit="10" d="M494.5,191.2
		c0.9,1.1,1.4,2.5,1.5,4.5c0.1,3.9-0.9,10-2.9,18.2c-3.4,13.6-5,20.3-4.9,20c-0.4,1.8-0.8,4.9-1.3,9.4c-0.4,4-0.9,7.1-1.5,9.4
		c-0.1,0.5-1,1.2-2.6,1.9c-1.4,0.7-3,1.2-4.7,1.5c-3.7,0.7-5.4,0.3-5-1.1c0.5-2.1,1-4.9,1.4-8.6c0.4-4.2,0.8-7.1,1.1-8.6
		c0.5-2.6,2-8.7,4.5-18.4c2.1-8.1,3.2-14.2,3.5-18.2c0.1-1.8,0.1-3.2-0.2-4.2c-0.2,0.2-0.2,0.3-0.1,0.2c-1.1,1.3-2.2,3-3.3,5
		c-1.7,3.2-3.5,7.4-5.3,12.6c-0.8,2.2-2.7,6.7-5.6,13.4c-1.4,3.1-2.4,5.7-3.1,8c-0.5,3.3-1.1,6.2-1.7,8.7c-0.3,1.3-2.5,2.4-6.5,3.2
		c-4,0.8-6,0.7-5.9-0.4c0.1-2,0.4-3.9,0.8-5.7c0.2-1.1,0.5-2.2,0.9-3.5c2.1-13.9,3.4-21.4,3.6-22.6c1.2-4.9,2.1-8.5,2.5-11
		c0.7-4.1,0.9-7.1,0.6-8.9c-2.8,3.9-5.7,9.4-8.7,16.6c-2.6,6.4-5,13.3-7.3,20.7c-1.9,6.2-3,10.6-3.5,13.3c-0.1,0.5-0.9,1.1-2.6,1.9
		c-1.4,0.7-3,1.2-4.8,1.5c-3.5,0.6-5.2,0.4-5.1-0.6c0.6-5.1,2.8-14.4,6.4-28c3.2-11.7,4.8-21.1,4.8-28.2c0-1.6,2.1-2.9,6.3-3.8
		c1.6-0.4,3.1-0.5,4.3-0.4c1.3,0,1.9,0.3,1.9,0.8c0,1.2,0,2.4-0.1,3.6c0.8-0.7,1.7-1.3,2.5-1.8c3.1-1.8,6.4-2.9,10.1-3.4
		c4.8-0.6,7.5,0.8,8,4.2c0.2,1.4,0.3,2.9,0.2,4.6c4.3-4.2,9.5-6.6,15.7-7.2C491.4,189.7,493.4,190.1,494.5,191.2z"/>
	<path display="inline" fill="#F7C433" stroke="#F9B233" stroke-width="2" stroke-miterlimit="10" d="M558.4,194
		c1.2,3.1,1.1,8.4-0.5,15.8c-1.5,7.3-3.5,14.1-6,20.4c-3.1,7.8-6.3,13.1-9.6,16c-3.2,2.9-7.4,4.5-12.4,5c-2.2,0.2-4.2-0.1-5.8-0.8
		c-2,8.6-3.6,16.2-4.8,22.6c-0.1,0.5-1,1.2-2.6,1.9c-1.4,0.7-3,1.2-4.8,1.5c-3.6,0.7-5.3,0.3-5-1.1c1.5-7.7,3.6-17.4,6.3-29.1
		c4-17.1,6.2-26.7,6.7-29c-0.7-0.2-0.9-0.6-0.7-1.2c0.7-1.6,1.3-2.9,1.8-3.9c1.5-6.9,2.7-13.2,3.8-18.9c0.1-0.5,0.9-1.1,2.6-1.9
		c1.4-0.7,3-1.2,4.7-1.5c3.6-0.7,5.3-0.3,5,1.1c0,0.2-0.1,0.5-0.2,0.9c-0.1,0.4-0.1,0.7-0.2,0.9c3.6-2,7.2-3,11-3.2
		C553.7,189.3,557.2,190.8,558.4,194z M546.4,207.2c0.4-2.4,0.4-4.4,0.3-6c-0.3-2.8-0.9-4.7-1.9-5.6c-0.4-0.4-0.8-0.6-1.1-0.8
		c-0.7,0.7-1.4,1.3-1.9,1.9c-1.3,1.4-2.6,3.2-3.9,5.3c-1.4,2.3-2.8,4.8-4.2,7.7c-0.7,3.2-3.5,15.2-8.3,35.9c0.2-0.1,0.3-0.1,0.5-0.2
		c3.7-1.4,6.2-1.7,7.6-1.1c3-4.3,5.8-10.4,8.4-18.3C544.2,218.9,545.7,212.6,546.4,207.2z"/>
	<path display="inline" fill="#F7C433" stroke="#F9B233" stroke-width="2" stroke-miterlimit="10" d="M627.2,197.6
		c-0.2,5-1.3,10.1-3.5,15.3c-3.5,14.5-5.5,25.3-6,32.4c-0.1,1.7-2.2,2.9-6.4,3.7c-1.6,0.3-3,0.4-4.2,0.4c-1.3-0.1-1.9-0.3-1.9-0.7
		c0.2-2.9,0.5-5.9,1-9.1c-1.6,1.6-3.1,3-4.6,4c-2.7,1.9-5.6,3-8.8,3.5c-3.4,0.5-5.8,0.3-7.1-0.6c-2.8-1.8-4.2-5.5-4.4-11.2
		c-0.4-9.7,2.2-19.5,7.6-29.5c3.4-6.1,9.1-10.8,17.2-14.1c5.9-2.4,10.5-2.9,13.8-1.4c2.1,0.9,3.2,3.1,3.3,6.6
		C625.9,196.6,627.2,196.8,627.2,197.6z M600.5,233.2c5.2-7.1,8.9-13.1,11-18.2c1.2-5.2,2.2-9.3,2.8-12.4c-2.4,0.2-3.6,0-3.6-0.6
		c0.2-3.6-0.3-5.8-1.5-6.8l-0.1,0.1c-0.4,0.3-0.8,0.5-1,0.6c-0.2,0.1-0.3,0.2-0.4,0.2c0,0-0.1,0.1-0.1,0.1c-1.4,1.1-2.5,2.1-3.5,3
		c-1,1-1.8,2.1-2.6,3.4c-1.1,2.1-2.1,4.1-3,6.2c-2.3,5.6-3.8,10.7-4.5,15.4c-0.9,5.9-0.7,10.7,0.6,14.2c0.2,0.5,0.4,1,0.6,1.5
		c0.7-0.8,1.1-1.2,1.1-1.2S597.9,236.8,600.5,233.2z"/>
	<path display="inline" fill="#F7C433" stroke="#F9B233" stroke-width="2" stroke-miterlimit="10" d="M691.1,188.5
		c0.8-0.2,1.7-0.3,2.8-0.4c1.6-0.1,2.4,0.1,2.3,0.7c0,0.1,0,0.2-0.1,0.3c0,0.1,0,0.2,0,0.3c0,0,0,0,0,0c-0.5,4.5-2,10.5-4.5,18
		c-0.5,3.2-1.5,9.2-3.1,17.8c-1.1,8.8-2.1,15.5-3.2,20.2c-1.8,8.2-3.4,13.8-4.8,16.9c-2,4.6-4.4,8-7,10.4c-5,4.6-10.7,7-17.1,7
		c-2.6,0-5-0.5-7.2-1.5c-2.6-1.2-4.2-2.9-4.9-5.2c-0.7-2.3-0.2-6.8,1.6-13.4c0.4-1.5,2.8-2.7,7.1-3.8c3.8-0.9,5.5-0.6,5,0.9
		c-1.8,6.4-2.3,10.5-1.6,12.3c0.8,2,2.2,3.5,4.4,4.4c0.6,0.3,1.1,0.5,1.6,0.6c0.4-0.4,0.6-0.7,0.8-0.8c1.1-1.3,2.1-2.7,3-4.3
		c1.7-3,3.1-6.6,4.3-11c1-3.7,2-7.8,2.9-12.3c-4.1,2.5-8.1,4-11.8,4.5c-4.6,0.5-8.2-0.6-11-3.5c-2.8-3-4.1-7.2-3.8-12.6
		c0.2-11.9,4.9-22.8,14.1-32.6c5-5.7,10.7-9.4,17.1-10.9c3.3-0.8,5.9-0.9,7.8-0.3c1.2-0.6,1.8-0.9,1.8-0.9S688.9,189,691.1,188.5z
		 M671.5,239.5c1.7-2.1,3.3-4.6,4.7-7.4c2.2-15.6,3.9-26.2,5.3-31.8c-1.5,0.1-2.4-0.2-2.8-0.9c-0.7-1.5-1.3-2.6-2-3.2
		c-0.2-0.2-0.4-0.3-0.6-0.4c-5.2,4.6-9.4,10.4-12.4,17.1c-3.2,6.3-4.7,12.1-4.5,17.4c-0.1,3.1,0.3,5.7,1.1,7.9
		c1.4,3.6,3.3,5.7,5.9,6.3c0.2-0.2,0.4-0.3,0.5-0.4c1.5-1.2,2.3-1.8,2.3-1.8S669.9,241.5,671.5,239.5z"/>
	<path display="inline" fill="#F7C433" stroke="#F9B233" stroke-width="2" stroke-miterlimit="10" d="M761.6,194.6
		c1.5,3.8,2.1,8.8,1.8,15c-0.3,4.4-1,9.9-2.2,16.5c-3.2,18.1-5.7,30.3-7.5,36.6c-0.1,0.5-1,1.1-2.6,1.9c-1.4,0.7-3,1.2-4.7,1.5
		c-3.8,0.7-5.4,0.3-5-1.1c1.8-6.3,4.2-18.3,7.4-36c2.3-12.7,2.8-21.7,1.6-27c-0.9,0.8-1.6,1.7-2.3,2.5c-2.8,3.4-5.6,7.9-8.4,13.5
		c-2.7,5.4-6.5,14.8-11.4,28.3c-0.4,1.3-2.6,2.3-6.6,3.1c-3.9,0.9-5.9,0.8-5.8-0.3c0.5-7,2.1-16.2,4.9-27.6
		c3.2-13.3,5.2-22.4,5.9-27.4c0.2-1.4,2.1-2.6,5.7-3.6c1-0.3,2.2-0.5,3.6-0.6c2.2-0.2,3.2,0.1,3.2,0.8c-0.7,4.3-1.7,9.5-3,15.4
		c1-1.2,2-2.3,3-3.3c4.7-4.5,10.5-7.4,17.3-8.7C759.5,193.4,761.2,193.6,761.6,194.6z"/>
	<path display="inline" fill="#F7C433" stroke="#F9B233" stroke-width="2" stroke-miterlimit="10" d="M798.3,193.9
		c0.1-0.5,0.9-1.1,2.5-1.9c1.4-0.7,3-1.2,4.8-1.5c3.6-0.7,5.2-0.3,5,1.1c-1.6,8.8-3.7,18-6.2,27.5c-1.3,4.6-2.5,9.1-3.9,13.6
		c-1.9,6.3-2.7,10.2-2.3,11.7c0.3,1.4-1.7,2.7-5.9,3.8c-4.1,1.1-6.3,0.9-6.6-0.4c-0.4-1.7,0.5-6,2.5-12.8c1.5-5,2.8-9.5,3.9-13.6
		C794.7,211.7,796.7,202.5,798.3,193.9z M796.8,176.8c-0.8-0.5-0.5-1.2,0.9-2.1c0.9-0.5,1.8-1,2.8-1.3c1.6-0.6,3.3-1,4.9-1.1
		c1.5-0.1,2.6,0,3.2,0.4c1.7,1.1,3.1,2.3,4.3,3.5c1.1,1.1-0.2,2.2-3.8,3.5c-1.6,0.6-3.3,1-4.9,1.1c-1.7,0.2-2.8,0-3.2-0.4
		C799.9,179.1,798.5,177.9,796.8,176.8z"/>
	<path display="inline" fill="#F7C433" stroke="#F9B233" stroke-width="2" stroke-miterlimit="10" d="M872.3,199.8
		c0.4,4.6-0.5,10.2-2.8,16.9c-0.3,0.8-1.6,1.6-4,2.5c-1.9,0.7-3.5,1-4.9,1.1c-0.9,0-3.3,0-7.2,0c-3,0-5.4,0.1-7.2,0.3
		c-0.6,3.1-1.1,6.6-1.3,10.5c-0.2,4.3,0,7.4,0.5,9.4c0.5,1.8,1.1,3,1.8,3.7c0.9-0.7,1.6-1.4,2.1-2.1c2.4-3,3.9-6.2,4.5-9.4
		c0.1-0.5,0.9-1.2,2.6-1.9c1.4-0.7,3-1.2,4.7-1.5c3.6-0.6,5.2-0.2,5,1.2c-0.9,5.1-3.6,9.5-8.2,13.3c-2.7,2.2-5.4,3.8-8.3,4.7
		c-4.8,1.6-8.5,2.1-11.1,1.4c-4.1-1-6.1-4.8-6.1-11.2c0-4,0.3-8.5,1.1-13.7c1.4-8.9,3.4-15.6,6-20.2c1.7-3.7,3.6-6.6,5.7-8.7
		c3.1-3,7.2-5,12.4-6c5.6-1,9.4-0.5,11.5,1.6C871,193.6,872,196.3,872.3,199.8z M845,245.8c0,0-0.1,0.1-0.2,0.1L845,245.8z
		 M847,216.4c3-0.4,6.7-0.7,11.2-0.8c1.4-5.4,2-9.7,1.5-12.8c-0.4-3.6-1.3-6-2.9-7.2c-0.2-0.2-0.4-0.3-0.6-0.4
		c-0.2,0.2-0.3,0.3-0.2,0.2c-0.5,0.5-0.9,0.9-1.2,1.4c-0.9,1.3-1.8,2.7-2.5,4.2c-1.5,3.2-2.9,6.2-4,9.1
		C847.9,212.1,847.4,214.2,847,216.4z M857.8,193.9C857.8,193.9,857.9,193.8,857.8,193.9C857.9,193.8,857.8,193.9,857.8,193.9z"/>
	<path display="inline" fill="#F7C433" stroke="#F9B233" stroke-width="2" stroke-miterlimit="10" d="M406.8,280.1
		c3.9,1.2,5.5,3.9,4.7,8.1c-0.1,0.5-1,1.1-2.6,1.9c-1.4,0.7-3,1.2-4.8,1.5c-3.6,0.7-5.3,0.3-5-1.1c0.7-3.4-0.7-5.4-4-5.9
		c0.1,0-0.2,0-0.9,0h-0.1c-0.5,0.4-1,0.7-1.3,0.9c-4.4,3.8-7.3,9.3-8.8,16.8c-1.1,5.1-1,10.5,0.1,16.2c0.6,3.2,1.5,5.7,2.7,7.4
		c0.2,0.2,0.4,0.5,0.6,0.8c2.4,0.3,4.5,1.3,6.1,2.9c0.9,0.8,0.1,1.8-2.3,2.9c-2.8,1.3-5.4,1.9-7.7,1.8c-1.6-0.1-2.9-0.4-4.2-0.8
		c-0.6,0.7-1.1,1.3-1.6,2.1c-3.6,5.5-5.1,10.6-4.6,15.1c0.4,3.5,1.5,6,3.1,7.7c0.9,0.9,1.8,1.6,2.8,2c0.5,0.2,0.9,0.4,1.3,0.5
		c0,0,0.2,0,0.5,0.1c0.1,0,0.2-0.1,0.2-0.2c2-1.7,3.6-3.9,4.7-6.7c0.6-1.5,3-2.6,7.3-3.4c1.1-0.2,2.1-0.3,3.1-0.2
		c1.6,0.1,2.2,0.5,1.9,1.4c-1.7,4.2-4.7,7.6-9,10.2c-4,2.5-8.4,3.8-13.2,4c-4.7,0.2-8.2-0.7-10.5-2.6c-2.7-2.3-4.3-5.5-4.7-9.4
		c-0.6-7,1.9-13.6,7.6-19.9c1.7-1.8,3.7-3.4,6.1-4.6c-1.5-2.3-2.5-5.3-3-9c-1-7.3-0.5-14,1.5-20c3.2-9.8,9.1-16.1,17.8-18.9
		c6.8-2.2,10.1-3.3,10.1-3.3S402.8,278.8,406.8,280.1z"/>
	<path display="inline" fill="#F7C433" stroke="#F9B233" stroke-width="2" stroke-miterlimit="10" d="M458.7,320
		c-1.1,1.6-3.6,2.7-7.4,3.4c-0.8,0.2-1.9,0.2-3.1,0.1c-1.8-0.1-2.4-0.5-1.9-1.3c3.9-5.4,5.2-9.4,3.9-12c-0.9-2-2.7-3-5.2-3.2
		c-0.6,0-0.7,0-0.1-0.1c-0.7,0.1-0.7,0.1,0.1,0c0.9-0.1,1.7-0.4,2.5-0.8c-0.1,0.1-0.3,0.2-0.4,0.2c0,0-0.1,0.1-0.4,0.3
		c0,0-0.2,0.2-0.5,0.5c-2.9,2.8-4.2,6.2-3.8,10.3c0.3,2.8,1.7,5.9,4.3,9.5c5,6.8,7.3,10,7.1,9.7c2.7,4.1,4.2,7.6,4.4,10.3
		c0.2,3.9-1.3,7.1-4.6,9.6c-6,4.5-12.2,6.5-18.6,6.1c-5.2-0.4-9.1-2.2-11.7-5.4c-2.8-3.5-3-7.4-0.5-11.6c0.9-1.5,3.4-2.6,7.4-3.3
		c0.9-0.2,2-0.3,3.1-0.2c1.7,0.1,2.3,0.5,1.9,1.3c-1.2,2.1-1.6,4.2-1.3,6.3c0.4,2.2,1.5,4,3.4,5.4c2,1.6,3.8,2.4,5.4,2.5
		c0.5,0,0.5,0,0.1,0.1c-0.7,0.1-1.3,0.3-1.9,0.6c0.7-0.3,1.3-0.7,1.8-1.1c4.5-3.9,3.5-10.3-2.9-19.2c-0.5-0.7-1.6-2.1-3.4-4.3
		c-1.5-1.9-2.6-3.5-3.5-4.7c-2.5-3.8-3.5-7.3-3.1-10.5c0.5-5.2,3.2-9.4,8-12.5c4.4-2.9,9.3-4.2,14.8-4c2.6,0.1,4.8,0.6,6.6,1.5
		c2.5,1.1,3.8,2.8,3.9,5C463.3,311.8,461.8,315.6,458.7,320z"/>
	<path display="inline" fill="#F7C433" stroke="#F9B233" stroke-width="2" stroke-miterlimit="10" d="M520.3,303
		c1.2,0.1,1.8,0.4,2,0.9c0.2,0.5-0.3,1.1-1.3,1.8c-2.8,1.7-5.8,2.5-8.8,2.3c-1.3,0-2.8-0.1-4.6-0.1c-1.1,3.8-2,7.4-2.7,11
		c-0.5,2.1-0.9,4.8-1.4,8.1c-0.7,4.3-1.1,7-1.2,8.1c-1.1,6.2-1.5,10.5-1.2,13c0.3,2.6,0.9,4.7,1.8,6.4c2.9-4.4,4.5-8.6,5-12.7
		c0.2-1.7,2.4-2.9,6.5-3.6c1.6-0.3,3-0.4,4.2-0.4c1.3,0,1.9,0.2,1.9,0.6c-0.9,7.1-3.8,13.3-8.7,18.3c-3.7,3.8-8.5,5.6-14.4,5.7
		c-3.3,0-5.7-1.8-7.2-5.3c-1.7-3.8-2-8.8-1-14.9c0.2-1.1,0.5-3.8,1.2-8.1c0.5-3.3,0.9-6,1.3-8.1c1.1-5.7,2.5-11.7,4.3-18
		c-4.7,0.1-7.9,0.1-9.7,0.1c-1.2,0-1.9-0.3-2.1-0.9c-0.1-0.5,0.3-1.1,1.3-1.8c2.5-1.6,5.5-2.4,8.8-2.4c0.9,0,1.9,0,3,0
		c1.4-4.4,3-9.1,4.9-14.1c0.5-1.5,3-2.6,7.4-3.4c3.9-0.7,5.5-0.3,5,1.1c-2.2,5.9-4,11.3-5.6,16.2C513.5,302.8,517.2,302.9,520.3,303
		z"/>
	<path display="inline" fill="#F7C433" stroke="#F9B233" stroke-width="2" stroke-miterlimit="10" d="M519.9,409.1
		c-0.9,1.5-3.4,2.6-7.4,3.3c-0.9,0.2-2,0.3-3.1,0.2c-1.8,0-2.4-0.5-1.9-1.3c3.3-5.4,5.3-11.9,6-19.5c0.4-3.7,0.2-6.6-0.5-8.8
		c-0.4-1.4-0.9-2.6-1.6-3.4c-0.2-0.3-0.5-0.6-0.9-0.9c-0.5-0.4-0.9-0.5-0.9-0.6c-0.5-0.2-0.9-0.3-1.2-0.3h-0.2c0.1,0,0.1,0-0.1,0
		c0.4,0,0.9-0.1,1.3-0.2c-0.2,0.1-0.3,0.1-0.1,0c-0.2,0.1-0.3,0.1-0.2,0.1c-0.3,0.1-0.4,0.2-0.4,0.2c-0.5,0.3-1,0.6-1.2,0.8
		c-2.9,2-5.5,4.9-7.9,8.8c-5.4,8.9-7.6,17.4-6.4,25.6c0.6,4.1,1.7,7,3.5,8.7c1.6,1.5,3.9,2.8,7,4c0.7,0.3,2,0.7,3.6,1.3
		c1.8,0.6,3.1,1,4,1.3c3.2,1.2,5.6,2.5,7.1,4.1c2.2,2.2,3,5.1,2.4,8.7c-0.5,3-1.8,5.8-4,8.6c-3.2,4.1-7.8,7.4-13.5,9.7
		c-7.3,2.9-13.4,3.6-18.5,2.1c-5-1.4-8.2-4.3-9.8-8.5c-0.9-2.4-1.1-4.6-0.6-6.6c0.4-1.9,1.8-3.6,4-5.3c2.3-1.7,5.3-2.5,8.8-2.4
		c1.3,0,2.1,0.3,2.2,0.9c0.1,0.4-0.4,1-1.5,1.8c-1.3,0.9-1.6,2.8-1.1,5.6c0.5,2.6,1.4,4.6,2.6,6c1.7,1.9,3.6,3.1,5.6,3.6
		c0.9,0.2,1.4,0.4,1.7,0.4c0.5,0,0.8,0,0.9,0c0.3,0,0.5,0,0.8-0.1c-0.4,0.1-0.5,0.1-0.6,0.1c0.7-0.3,0.8-0.3,0.2-0.1
		c0.4-0.2,0.7-0.3,1.1-0.5c0.1-0.1,0.4-0.3,0.8-0.5c0.9-0.6,1.7-1.2,2.3-1.8c1.6-1.4,2.9-3.1,3.9-5.1c2-3.8,2.7-6.8,2.1-9.1
		c-0.5-2.1-2-3.9-4.5-5.3c-1.2-0.7-3.4-1.6-6.6-2.7c-7.9-2.8-12.6-5.6-14.3-8.5c-3.5-6.1-3.5-14.2,0-24.3c3.5-10,8.8-17.1,15.9-21.3
		c5.1-3,10.4-4.6,15.7-5c4.3-0.3,7.3,0.6,8.9,2.5c2.9,3.3,3.6,8.9,2.2,16.9C524.4,399.1,522.5,404.8,519.9,409.1z"/>
	<path display="inline" fill="#18213C" stroke="#18213C" stroke-width="2" stroke-miterlimit="10" d="M588.4,420.6
		c-0.2,5-1.3,10.1-3.5,15.3c-3.5,14.5-5.5,25.3-6,32.4c-0.1,1.7-2.2,2.9-6.4,3.7c-1.6,0.3-3,0.4-4.2,0.4c-1.3-0.1-1.9-0.3-1.9-0.7
		c0.2-2.9,0.5-5.9,1-9.1c-1.6,1.6-3.1,3-4.6,4c-2.7,1.9-5.6,3-8.8,3.5c-3.4,0.5-5.8,0.3-7.1-0.6c-2.8-1.8-4.2-5.5-4.4-11.2
		c-0.4-9.7,2.2-19.5,7.6-29.5c3.4-6.1,9.1-10.8,17.2-14.1c5.9-2.4,10.5-2.9,13.8-1.4c2.1,0.9,3.2,3.1,3.3,6.6
		C587.1,419.6,588.4,419.8,588.4,420.6z M561.7,456.2c5.2-7.1,8.9-13.1,11-18.2c1.2-5.2,2.2-9.3,2.8-12.4c-2.4,0.2-3.6,0-3.6-0.6
		c0.2-3.6-0.3-5.8-1.5-6.8l-0.1,0.1c-0.4,0.3-0.8,0.5-1,0.6c-0.2,0.1-0.3,0.2-0.4,0.2c0,0-0.1,0.1-0.1,0.1c-1.4,1.1-2.5,2.1-3.5,3
		c-1,1-1.8,2.1-2.6,3.4c-1.1,2.1-2.1,4.1-3,6.2c-2.3,5.6-3.8,10.7-4.5,15.4c-0.9,5.9-0.7,10.7,0.6,14.2c0.2,0.5,0.4,1,0.6,1.5
		c0.7-0.8,1.1-1.2,1.1-1.2S559.1,459.8,561.7,456.2z"/>
	<path display="inline" fill="#18213C" stroke="#18213C" stroke-width="2" stroke-miterlimit="10" d="M654.3,417.6
		c1.5,3.8,2.1,8.8,1.8,15c-0.3,4.4-1,9.9-2.2,16.5c-3.2,18.1-5.7,30.3-7.5,36.6c-0.1,0.5-1,1.1-2.6,1.9c-1.4,0.7-3,1.2-4.7,1.5
		c-3.8,0.7-5.4,0.3-5-1.1c1.8-6.3,4.2-18.3,7.4-36c2.3-12.7,2.8-21.7,1.6-27c-0.9,0.8-1.6,1.7-2.3,2.5c-2.8,3.4-5.6,7.9-8.4,13.5
		c-2.7,5.4-6.5,14.8-11.4,28.3c-0.4,1.3-2.6,2.3-6.6,3.1c-3.9,0.9-5.9,0.8-5.8-0.3c0.5-7,2.1-16.2,4.9-27.6
		c3.2-13.3,5.2-22.4,5.9-27.4c0.2-1.4,2.1-2.6,5.7-3.6c1-0.3,2.2-0.5,3.6-0.6c2.2-0.2,3.2,0.1,3.2,0.8c-0.7,4.3-1.7,9.5-3,15.4
		c1-1.2,2-2.3,3-3.3c4.7-4.5,10.5-7.4,17.3-8.7C652.3,416.4,654,416.6,654.3,417.6z"/>
	<path display="inline" fill="#18213C" stroke="#18213C" stroke-width="2" stroke-miterlimit="10" d="M714.4,431
		c-1.1,1.6-3.6,2.7-7.4,3.4c-0.8,0.2-1.9,0.2-3.1,0.1c-1.8-0.1-2.4-0.5-1.9-1.3c3.9-5.4,5.2-9.4,3.9-12c-0.9-2-2.7-3-5.2-3.2
		c-0.6,0-0.7,0-0.1-0.1c-0.7,0.1-0.7,0.1,0.1,0c0.9-0.1,1.7-0.4,2.5-0.8c-0.1,0.1-0.3,0.2-0.4,0.2c0,0-0.1,0.1-0.4,0.3
		c0,0-0.2,0.2-0.5,0.5c-2.9,2.8-4.2,6.2-3.8,10.3c0.3,2.8,1.7,5.9,4.3,9.5c5,6.8,7.3,10,7.1,9.7c2.7,4.1,4.2,7.6,4.4,10.3
		c0.2,3.9-1.3,7.1-4.6,9.6c-6,4.5-12.2,6.5-18.6,6.1c-5.2-0.4-9.1-2.2-11.7-5.4c-2.8-3.5-3-7.4-0.5-11.6c0.9-1.5,3.4-2.6,7.4-3.3
		c0.9-0.2,2-0.3,3.1-0.2c1.7,0.1,2.3,0.5,1.9,1.3c-1.2,2.1-1.6,4.2-1.3,6.3c0.4,2.2,1.5,4,3.4,5.4c2,1.6,3.8,2.4,5.4,2.5
		c0.5,0,0.5,0,0.1,0.1c-0.7,0.1-1.3,0.3-1.9,0.6c0.7-0.3,1.3-0.7,1.8-1.1c4.5-3.9,3.5-10.3-2.9-19.2c-0.5-0.7-1.6-2.1-3.4-4.3
		c-1.5-1.9-2.6-3.5-3.5-4.7c-2.5-3.8-3.5-7.3-3.1-10.5c0.5-5.2,3.2-9.4,8-12.5c4.4-2.9,9.3-4.2,14.8-4c2.6,0.1,4.8,0.6,6.6,1.5
		c2.5,1.1,3.8,2.8,3.9,5C719.1,422.8,717.6,426.6,714.4,431z"/>
	<path display="inline" fill="#18213C" stroke="#18213C" stroke-width="2" stroke-miterlimit="10" d="M605.6,498.2
		c2.4,3.6,3.1,8.9,2,15.9c-0.3,1.9-0.9,4.8-1.9,8.6c-0.9,3.8-1.5,6.6-1.8,8.6c-0.2,1.4-2.2,2.6-5.8,3.6c-0.9,0.2-2.1,0.4-3.6,0.6
		c-2.2,0.2-3.2-0.1-3.1-0.8c0-0.2,1-4.5,2.9-12.9c1.2-5.3,1.6-9.6,1.2-13.1c-0.5-4.3-1.9-7.1-3.9-8.5c-0.2,0.2-0.3,0.3-0.4,0.3
		c-5.9,5.5-10.2,14.4-12.8,26.7c-1.8,8.5-3,17.9-3.5,28.2c-0.1,7,0,11.1,0.1,12.5c0.7,5.2,2.7,8.6,5.9,10.1c0.7-0.9,1.4-1.9,2.1-3
		c1.6-2.8,3-6.6,4.5-11.4c0.2-0.5,1-1.2,2.6-1.9c1.4-0.7,3-1.2,4.7-1.5c3.8-0.7,5.4-0.3,5,1.1c-1.9,6.5-3.9,11.1-6.1,13.9
		c-2.1,2.7-4.9,4.9-8.3,6.4c-3.4,1.5-6.8,2.1-10.4,2c-6.2-0.3-10.1-3.3-11.7-8.8c-0.8-2.8-1.1-7.9-1.1-15.4
		c0.5-10.3,1.7-19.6,3.3-28c2.5-12.2,6.6-21.5,12.4-27.9c3.7-4.1,8.2-6.8,13.7-8.1C598.5,493.6,603.1,494.6,605.6,498.2z"/>
	<path display="inline" fill="#18213C" stroke="#18213C" stroke-width="2" stroke-miterlimit="10" d="M638.4,522.9
		c0.1-0.5,0.9-1.1,2.5-1.9c1.4-0.7,3-1.2,4.8-1.5c3.6-0.7,5.2-0.3,5,1.1c-1.6,8.8-3.7,18-6.2,27.5c-1.3,4.6-2.5,9.1-3.9,13.6
		c-1.9,6.2-2.7,10.2-2.3,11.7c0.3,1.4-1.7,2.7-5.9,3.8c-4.1,1.1-6.3,0.9-6.6-0.4c-0.4-1.7,0.5-6,2.5-12.8c1.5-5,2.8-9.5,3.9-13.6
		C634.8,540.7,636.8,531.5,638.4,522.9z M636.9,505.8c-0.8-0.5-0.5-1.2,0.9-2.1c0.9-0.5,1.8-1,2.8-1.3c1.6-0.6,3.3-1,4.9-1.1
		c1.5-0.1,2.6,0,3.2,0.4c1.7,1.1,3.1,2.3,4.3,3.5c1.1,1.1-0.2,2.2-3.8,3.5c-1.6,0.6-3.3,1-4.9,1.1c-1.7,0.2-2.8,0-3.2-0.4
		C640,508.1,638.6,506.9,636.9,505.8z"/>
	<path display="inline" fill="#18213C" stroke="#18213C" stroke-width="2" stroke-miterlimit="10" d="M712.4,528.8
		c0.4,4.6-0.5,10.2-2.8,16.9c-0.3,0.8-1.6,1.6-4,2.5c-1.9,0.7-3.5,1-4.9,1.1c-0.9,0-3.3,0-7.2,0c-3,0-5.4,0.1-7.2,0.3
		c-0.6,3.1-1.1,6.6-1.3,10.5c-0.2,4.3,0,7.4,0.5,9.4c0.5,1.8,1.1,3,1.8,3.7c0.9-0.7,1.6-1.4,2.1-2.1c2.4-3,3.9-6.2,4.5-9.4
		c0.1-0.5,0.9-1.2,2.6-1.9c1.4-0.7,3-1.2,4.7-1.5c3.6-0.6,5.2-0.2,5,1.2c-0.9,5.1-3.6,9.5-8.2,13.3c-2.7,2.2-5.4,3.8-8.3,4.7
		c-4.8,1.6-8.5,2.1-11.1,1.4c-4.1-1-6.1-4.8-6.1-11.2c0-4,0.3-8.5,1.1-13.7c1.4-8.9,3.4-15.6,6-20.2c1.7-3.7,3.6-6.6,5.7-8.7
		c3.1-3,7.2-5,12.4-6c5.6-1,9.4-0.5,11.5,1.6C711.1,522.6,712.2,525.3,712.4,528.8z M685.1,574.8c0,0-0.1,0.1-0.2,0.1L685.1,574.8z
		 M687.1,545.4c3-0.4,6.7-0.7,11.2-0.8c1.4-5.4,2-9.7,1.5-12.8c-0.4-3.6-1.3-6-2.9-7.2c-0.2-0.2-0.4-0.3-0.6-0.4
		c-0.2,0.2-0.3,0.3-0.2,0.2c-0.5,0.5-0.9,0.9-1.2,1.4c-0.9,1.3-1.8,2.7-2.5,4.2c-1.5,3.2-2.9,6.2-4,9.1
		C688,541.1,687.5,543.2,687.1,545.4z M697.9,522.9C698,522.9,698,522.8,697.9,522.9C698,522.8,698,522.9,697.9,522.9z"/>
	<path display="inline" fill="#18213C" stroke="#18213C" stroke-width="2" stroke-miterlimit="10" d="M750.6,492.8
		c0.5-1.5,3-2.6,7.4-3.4c3.9-0.7,5.5-0.3,5,1.2c0.4-1-6,27.4-19,85.3c-0.1,0.5-1,1.1-2.6,1.9c-1.4,0.7-3,1.2-4.7,1.5
		c-3.7,0.7-5.4,0.3-5-1.1c0.2-0.9,2.9-15.3,8.1-43C742.8,517.8,746.5,503.7,750.6,492.8z"/>
</g>
</svg>
