<?xml version="1.0" encoding="utf-8"?>
<!-- Generator: Adobe Illustrator 18.0.0, SVG Export Plug-In . SVG Version: 6.00 Build 0)  -->
<!DOCTYPE svg PUBLIC "-//W3C//DTD SVG 1.1//EN" "http://www.w3.org/Graphics/SVG/1.1/DTD/svg11.dtd">
<svg version="1.1" id="Calque_1" xmlns="http://www.w3.org/2000/svg" xmlns:xlink="http://www.w3.org/1999/xlink" x="0px" y="0px"
	 viewBox="0 0 287.2 286.2" enable-background="new 0 0 287.2 286.2" xml:space="preserve">
<g id="f1xFlG.tif">
	<g>
		<g>
			<path fill="#1B223B" d="M151.1,0.1c0.7,0,1.3,0,2,0c1.9,1.1,4,0.2,6,0.5c19.9,0,38,6.6,54.9,16.3c38.9,22.2,63.2,55.3,71.8,99.4
				c0.9,4.9,0.4,9.9,1.4,14.8c0,2.7,0,5.3,0,8c-0.8,2.7-0.8,5.3,0,8c0,3,0,6,0,9c-0.9,11.9-2.5,23.7-6.8,35
				c-18.6,48.8-53.1,79.8-103.5,93c-6.1,1.6-12.5,0.8-18.7,2c-10.3,0-20.7,0-31,0c-13.5-0.9-26.5-4-38.9-9.5
				c-46.2-20.3-74.6-55.4-86.1-104.4c-1.5-6.3-1.2-12.9-1.5-19.3c-0.1-1.9,0.6-4-0.5-5.8c0-2.7,0-5.3,0-8c0.9-6.4,0.4-12.9,1.3-19.2
				C4.9,94.1,15.7,71.5,32,51.5c20.1-24.6,45.8-40.6,76.5-48.7c7.1-1.9,14.4-1.5,21.6-2.7c3,0,6,0,9,0
				C143.1,0.9,147.1,0.9,151.1,0.1z"/>
			<path fill="#FFFFFF" d="M130.1,0.1c-4.5,2.1-9.6,1.7-14.3,2.8C55.2,17.3,18,55,3.5,115.4c-1.6,6.8-2.4,13.7-2.5,20.8
				c0,1,0.6,2.4-1,3C0.1,94,0.1,48.9,0,3.8C0,0.7,0.7,0,3.8,0C45.9,0.1,88,0.1,130.1,0.1z"/>
			<path fill="#FFFFFF" d="M0.1,147.1c2.1,4.1,1.2,8.6,1.7,12.9c6.9,62.4,56.7,114.6,118.5,124.2c2.2,0.3,4.9-0.1,6.8,1.9
				c-41.1,0-82.2,0-123.3,0.1c-3.1,0-3.8-0.7-3.8-3.8C0.1,237.2,0.1,192.2,0.1,147.1z"/>
			<path fill="#FFFFFF" d="M287.1,131.1c-2.2-5-1.9-10.5-2.9-15.8C272.9,58.1,226.7,12.5,169.5,2.4c-3.4-0.6-6.9-0.9-10.4-1.4
				c-0.4-0.2-0.5-0.4-0.4-0.6c0.1-0.2,0.2-0.3,0.4-0.3c41.5,0,83,0,124.5-0.1c3,0,3.6,0.6,3.6,3.6C287,46.1,287.1,88.6,287.1,131.1z
				"/>
			<path fill="#FFFFFF" d="M158.1,286.1c4.5-2,9.5-1.7,14.3-2.7c58.4-12.8,101.3-56.5,112.4-114.9c0.8-4.1,0.4-8.5,2.3-12.3
				c0,42.2,0,84.3,0.1,126.5c0,3-0.6,3.6-3.6,3.6C241.7,286,199.9,286.1,158.1,286.1z"/>
			<path fill="#2A2E46" d="M151.1,0.1c-4,1.6-8,1.6-12,0C143.1,0.1,147.1,0.1,151.1,0.1z"/>
			<path fill="#504F67" d="M287.1,147.1c-1.5-2.7-1.5-5.3,0-8C287.1,141.8,287.1,144.4,287.1,147.1z"/>
			<path fill="#B7B4C0" d="M159.1,0.1c-0.1,0.3-0.1,0.6,0,0.9c-2.1,0-4.2,0.7-6-0.9C155.1,0.1,157.1,0.1,159.1,0.1z"/>
			<path fill="#FFFFFF" d="M105.1,162.3c0.9-0.7,1.7-1.4,2.6-2.1c0.9-0.9,1.7-2,2.9-2.7c0.4-0.3,0.8-0.5,1.2-0.7
				c1.2-0.7,2.6-0.7,3.9-0.7c4.9-1.5,5.1-7.2,8.7-9.8c0.6-0.7,1.2-0.7,1.9-0.3c1.7,2.6-0.4,5.1-0.4,7.7c0,2.5-1,5.7,2.8,6.4
				c6.1,1.2,7.6,0.4,8.7-4.5c0.5-2.4,1.1-4.8,1.6-7.3c1-5-0.1-6.3-5.2-6.4c-1,0-2,0.1-2.8-0.5c-1.2-2.4,0.9-3.2,2.2-4.3
				c1.5-1.4,3.1-2.5,4.7-3.7c17.7-13,36-10,51.7,3.9c5.7,5.1,11.1,10.5,15.3,17c1.5,2.3,3.6,2.6,6.1,2.5c7.4-0.2,14.5,0.7,21.5,3.3
				c3.5,1.3,6.7,2.9,9.6,5.1c0.9,0.9,1.8,1.8,2.7,2.6c1.1,1.4,2.4,2.7,3.1,4.4c1.9,4.5,2.7,9.2,2,14.1c-0.1,0.9-0.2,1.6,0.8,2.1
				c0.3,0.3,0.7,0.6,1,0.9c2.4,1.6,5.6,2.1,7.5,4.6c3.8,2.5,7.7,5,9.5,9.5c2.4,2.7,0.3,4.7-0.9,6.9c-3.2,2.7-7.1,4.1-10.9,5.6
				c-7.5,2.4-15.2,3.2-22.9,4.3c-3.2,0.5-5.6,1.8-8,3.5c-8.9,6.1-18,11.9-28.8,14.5c-13.7,3.3-21.1-0.7-24.8-14.1
				c-0.9-3.4-2.1-3.8-5.2-2.4c-8.5,3.8-17.3,6.9-26.5,8.7c-2.8,0.5-5.6,0.8-8.4,0.7c-10.4-0.3-17-8-15.2-18.3
				c0.6-3.6,1-7.3,2.5-10.6c1.4-3.2,0.7-5-2.7-6.5c-5.4-2.3-10.1-5.7-14.3-9.9c-2.2-2.2-3.8-4.6-4.7-7.5c-1.5-4.8,1.1-8.4,3.8-11.8
				c0.2-0.2,0.5-0.5,0.7-0.7C103.1,164.4,104.3,163.5,105.1,162.3z"/>
			<path fill="#F6B237" d="M98.2,177.9c4.3,8.6,12,13.1,20.4,16.7c3.1,1.3,4,2.5,2.7,5.9c-1.9,5-3.1,10.2-3,15.6
				c0.2,8.4,4.8,12.8,13.1,13.1c9.9,0.3,18.9-3,28-6.3c2.6-1,5.3-2,7.7-3.4c4.1-2.5,5.6-2.2,6.5,3.1c2.1,12.8,9.6,17.3,22.3,14.2
				c10.3-2.5,19.4-7.7,28.1-13.7c3.5-2.4,6.9-4,11.3-4.5c7.2-0.7,14.4-2.3,21.6-3.5c0.8-0.6,1.5-0.5,2.2,0.1
				c-7.8,3.7-16.3,4.4-24.6,5.7c-3,0.4-5.3,1.5-7.6,3.2c-10,7.3-20.4,14-32.8,16.2c-12.7,2.3-19.9-2.4-23.7-14.8
				c-0.3-0.9-0.5-1.9-0.9-3c-10.7,4.6-21.3,8.7-32.8,10.2c-15.3,2-24.2-7.1-21.2-22.2c0.8-4,3.7-8.7,2.4-11.9
				c-1.2-3.1-6.6-4.4-9.9-6.7c-4-2.8-8.1-5.8-10.1-10.6C97.5,180.1,97.3,179,98.2,177.9z"/>
			<path fill="#F6C234" d="M99.3,66.2c-1.3,3.4-3.1,6.5-3.7,10.1c-0.4,2.4-2.4,3.3-4.5,2.6c-2-0.6-0.7-2.4-0.5-3.7
				c0.3-1.9,0.4-3.9,0.6-5.9c0.6-1.1,0-2.4,0.3-3.5c0.1-0.6,0.1,0.3,0.1-0.4c0-0.6-0.1-0.6,0,0c-0.2,0.8-0.7,1.3-1.3,1.7
				c-1,3-2.3,5.9-3,9c-0.6,2.6-2,4.2-4.4,3.7c-3.1-0.6-0.9-3-0.7-4.4c0.8-5.2,3-10.2,3.2-15.6c0.1-1.7,0.9-3.5,2.6-2.9
				c3.6,1.1,7.4-2.8,10.8,0.9c1.1,1.2,2.4-0.5,3.7-0.7c3.3-0.6,5.4,0.2,4.7,4c-1.2,6.2-2.5,12.4-3.7,18.5c-0.4,2.1-2.1,2.6-3.8,2.5
				c-2.6-0.2-1.3-2.4-1.1-3.5c0.4-3.5,1.2-6.9,1.8-10.3c0.5-0.8,0.3-1.8,0.2-2.6c0,0,0.1-0.3,0.1-0.3s-0.3-0.2-0.3-0.2
				C100.1,65.6,99.7,65.9,99.3,66.2z"/>
			<path fill="#F6C134" d="M171.9,79.5c-7.6,1.1-10.4-1.9-8.7-9.5c1.7-7.7,8.4-13.3,16.1-13.8c1.9-0.1,2.5,0.5,2.1,2.2
				c-2.4,8.3-2.5,17.1-5.3,25.3c-1.3,3.9-4.2,6.3-8.2,7.2c-2.1,0.5-4-0.1-5.4-1.7c-1.5-1.8-0.7-3.8-0.1-5.7c0.5-1.6,2.2-2.2,3.6-2.2
				c2.3,0.1,1.1,1.9,1.1,3c0,1.3-0.3,3,1.3,3.3c1.3,0.2,1.8-1.4,2.2-2.4C171.3,83.4,172.3,81.6,171.9,79.5z"/>
			<path fill="#F6B239" d="M242.1,165.9c-9.3-6.5-19.8-8.3-30.8-7.8c-4,0.2-6.4-1.2-8.6-4.4c-3.9-5.6-8.5-10.7-13.7-15.2
				c-15.9-13.7-31.4-17.3-50.9-4.7c-0.5-0.2-1-0.2-1.1-0.9c15.4-13.2,35.5-12.4,52.6,2c5.4,4.5,10.4,9.4,14.3,15.3
				c2.5,3.7,5.4,4.9,9.8,4.9c9.9,0.1,19.5,2.1,27.8,8.1c0.7,0.5,1.1,1.2,1.7,1.7C242.9,165.5,242.6,165.8,242.1,165.9z"/>
			<path fill="#F5C134" d="M201.2,62.9c-3.4,4.1-4.7,8-6.2,11.8c-0.6,1.4-1,2.9-2,4c-0.8,0.9-2.3,1.6-3.6,1c-1.5-0.6-0.8-2-0.6-3.1
				c1.1-5.5,2.3-11.1,3.4-16.6c0.4-2.3,1.9-3,3.9-3c3.2,0,0.3,2.8,1.7,3.7c2.7-0.5,5.5-4.1,8-1.7c2.4,2.2,1.3,5.9,0.7,9.1
				c-0.9,4.4-1.5,8.9-2.4,13.3c-0.3,1.3-0.6,2.7-1.5,3.6c-0.9,0.8-2.4,1.7-3.7,1c-1.3-0.7-0.6-2-0.3-3.2
				C199.7,76.5,201.4,70.4,201.2,62.9z"/>
			<path fill="#F4C035" d="M138.3,73.2c-0.1-7.3,3.9-13.9,9.8-15.8c2-0.7,4.1-1.3,6,0.5c2,1.8,2,3.8,1.3,6.2
				c-1.1,3.8-1.7,7.7-2.5,11.6c-0.8,4-2.3,4.8-5.8,2.4c-1.3-0.9-1.8,0-2.5,0.2C139.8,79.5,138.3,78.3,138.3,73.2z"/>
			<path fill="#F5C034" d="M125.1,57.1c3.3-0.7,5.3,1,4.9,4.1c-0.9,6.6-1.8,13.4-7.4,18.1c-1.7,0.9-4.3-0.6-5.5,1.9
				c0,0.2,0.1,0.3,0,0.5c-0.8,3.1,0,8.6-4.6,7.7c-3.7-0.7-0.7-5.3-0.2-8c1.3-7,3.3-13.9,4.6-20.9c0.6-3.4,2.3-4.1,5.2-3.4
				c2.6,0.6,2.6,2.4,2.1,4.5c-1.8,4.3-3,8.8-4,13.3c0,0,0.1,0.2,0.1,0.2s0.2-0.3,0.2-0.3c1.1-3.2,2.2-6.4,3.3-9.5
				C125.4,62.7,123.8,59.7,125.1,57.1z"/>
			<path fill="#1D243D" d="M131.3,140.9c1.4-0.3,2.9-0.8,4.3-1c3.9-0.5,6.4,2.1,5.6,5.9c-0.9,4.7-2.1,9.4-3,14.1
				c-0.4,2-2.3,3.1-3,2.5c-2.9-2.7-5.8-0.1-8.6-0.6c-1.9-0.3-2.5-1.9-2.7-3.7c-0.5-4.3,0.8-8.2,2.4-12.1c-0.2-1.5,1.3-2.3,1.7-3.5
				c0.3-0.5,0.5-1,0.8-1.6C129.7,140.5,130.5,140.5,131.3,140.9z"/>
			<path fill="#F4C035" d="M69.1,109.7c-2.4,2.2-7,0.4-7.4,5.1c-0.2,1.8-0.3,3.5,1,4.6c2.1,1.9,2.2-1,3.2-1.7c1.3-0.8,3-1.8,4.1-0.7
				c1.4,1.6-0.6,2.6-1.6,3.5c-3.2,2.9-8.2,3.5-10.5,1c-3.1-3.4-2-7,0.4-9.9c1.8-2.1,2.1-3.9,1.9-6.6c-0.8-7.9,2.3-13,8.8-14.7
				c1.1-0.3,2.3-0.4,3.4-0.3c1.4,0.1,2.5,0.8,3.1,2.2c0.4,1.1-0.1,2-1,2.5c-1.2,0.6-2.9,1.1-3.7-0.2c-2-3.1-2.9-0.8-3.8,0.6
				C63.9,99.8,64.7,105.5,69.1,109.7z"/>
			<path fill="#F5C035" d="M112.5,158c-0.6,0.3-1.1,0.6-1.7,1c-1.3,0-2.6-0.2-3.9-0.1c-2.2,0.2-4.3,0.2-6.2-1.1
				c-2.8-1.9-3.2-5.3-0.7-7.1c0.9-0.7,2.1-1.2,3.2-1.1c1.9,0.2,0.7,1.8,0.8,2.7c0,1.9,0.8,3.4,2.6,3.7c2.5,0.5,3.4-1.6,4.2-3.4
				c0.9-1.8,0.2-3.2-1.5-4.1c-0.3-0.2-0.6-0.3-0.9-0.4c-3.5-1.4-7.5-2.3-7.4-7.3c0.1-5.7,1.6-10.8,7.1-13.7c1.3-0.6,2.3-0.6,2.3,1.3
				c-1.2,2.3-2.8,4.5-3.6,7c-1.7,5.1-0.3,7.9,4.5,9.8c6.1,2.4,6.7,4.2,3.1,10C114,156.2,112.6,156.7,112.5,158z"/>
			<path fill="#F5C134" d="M58.9,74.3c0.1-4.8,1.3-9.1,3.4-13.1c1.6-3.1,4.4-4.8,7.8-4.2c3.6,0.7,4.2,4,4,7.1
				c-0.2,5.8-1.8,11.2-7,14.6c-1.9,1.2-4.3,2.1-6.6,0.8C58.3,78.3,59.2,76,58.9,74.3z"/>
			<path fill="#F3BE35" d="M244.1,74.2c-2.6,3.3-5.8,7.2-10,5.2c-4.4-2.1-2.2-7.2-1.6-10.9c0.8-4.7,2.2-9.7,7.7-11.3
				c2.9-0.8,6.2-1.5,7,3c0.9,4.8-1,8.7-4.9,8.5c-5.8-0.3-5.6,2.9-4.9,7.1c2.3-0.6,1.5-4.4,4.4-3.9C243.9,71.3,245,71.8,244.1,74.2z"
				/>
			<path fill="#F4BF35" d="M111,113.1c1.5-0.9,3.4-1.9,4.6-0.7c1.4,1.5-0.2,3.4-1,4.9c-1.7,2.9-4.3,5.1-7.7,4.3
				c-3.6-0.8-3.1-4.3-2.9-7.1c0.2-3,0.4-6.1,1.3-8.9c1-3.2,0.6-4.8-4.7-4.6c4.6-2,7.8-3.2,8.5-7.2c0.3-1.4,2.4-1.9,3.8-1.5
				c2.1,0.7,0.7,2.3,0.2,3.3c-2,4.4,2.1,2.8,5.2,4.3c-7.4,0.6-8.5,4.9-8.3,9.9C109.3,112.8,109.5,113.4,111,113.1z"/>
			<path fill="#F4C035" d="M49.2,74.4c-0.6,1.1-1,2.5-1.9,3.3c-2.4,2.1-4.9,4.6-8.6,3.4c-3.5-1.1-3.2-4.4-3.2-7
				c0-6.9,0.5-13.9,3.8-20.2c0.8-1.6,1.8-3.2,3.6-3.9c2.1-0.8,2.9-0.2,2.1,2.1c-3.9,8.3-5,16.9-3.6,25.9c3.4-0.5,1.8-4.5,4.5-5
				C47.4,72.7,49.2,71.5,49.2,74.4z"/>
			<path fill="#F4BF35" d="M82.1,121.1c-3.4-0.1-3.5-2.5-3.1-4.9c0.5-3.1,3.1-2.1,5.1-2.2c0.5,0.4,0.7,1,1.1,1.5
				c0.3-1.1,0.3-2.3-0.2-3.4c-4.3-6.5-3.9-10.6,1.2-12.7c2.8-1.1,6-1.3,7.6,1.4c1.8,3.1-1.4,4.6-3.4,6.2c-0.5,0.4-1.5,0.4-2.4,0.7
				c2.3,3,5.7,5.3,4.8,9.4c-0.6,2.7-3.2,3.4-5.6,4.1C85.5,121.8,83.8,121.9,82.1,121.1z"/>
			<path fill="#F3BE35" d="M224,59.8c-1.4,5.5-2.8,11.6-4.4,17.7c-0.5,2-2.5,2.1-4.2,1.7c-2.1-0.5-0.9-2.1-0.6-3.3
				c1.3-5.3,2.7-10.6,3.9-15.9c0.5-2.3,1.9-2.9,3.9-2.9C224.2,57.1,224.2,58.1,224,59.8z"/>
			<path fill="#F3BE35" d="M45.1,52.1c-0.1-1.3-0.9-2-2.1-2.1c2.4-2.4,5.5-3,8.2-1.5c3,1.6,2,5,1.7,7.7c-0.1,1.1-0.7,2.3-0.8,3.4
				c-0.1,2.8-1.9,4.2-4.2,3.7c-3.1-0.6-0.7-3-0.7-4.4c0.1-2,1-3.9,0.6-5.9C47.4,51.3,46.5,50.9,45.1,52.1z"/>
			<path fill="#F3BD35" d="M110.2,128.3c-0.5-0.9-1.3-1.2-2.3-1.3c1.8-1.7,4-2,6.4-2.1c1.9,0,3.4,0.8,3.7,2.6
				c0.7,3.8,0.2,7.6-1.9,11c-1,1.6-2.8,2.3-4.3,1.5c-1.8-0.9,0-2.3,0.3-3.4c0.5-2.1,1.1-4.1,0.9-6.3
				C112.9,128.5,112.2,127.5,110.2,128.3z"/>
			<path fill="#F7B236" d="M250.6,188.1c-2-0.4-1.3-2-1.2-3.2c0.3-4.8-0.5-9.4-2.7-13.8c0.4-0.4,0.8-0.5,1.2-0.1
				C251.2,176.4,250.9,182.3,250.6,188.1z"/>
			<path fill="#36323D" d="M85.1,112.1c0.6,0.7,1.4,1.4,1.8,2.2c0.6,1.3,1.4,2.7,0.3,4.1c-0.7,0.9-1.3,0.2-2-0.2
				c-2-1.1-2.3-2.4-1-4.2C84.4,113.4,84.7,112.7,85.1,112.1z"/>
			<path fill="#F7B236" d="M131.3,140.9c-0.8,0-1.6,0-2.4,0c1.6-3.8,4.9-5.8,8.1-8c0.4,0.3,0.7,0.6,1.1,0.9
				C136,136.5,132.1,137.3,131.3,140.9z"/>
			<path fill="#F6B135" d="M98.2,177.9c-0.1,1.1-0.1,2.3-0.2,3.4c-1.3-0.6-0.9-1.9-1.1-2.9c-0.5-2.1-0.7-4.2,0.1-6.3
				c0.4-2.8,1.5-5,4.3-6C99.7,169.8,97.3,173.4,98.2,177.9z"/>
			<path fill="#E7B035" d="M222.2,54.1c-1.9,0.1-3.2-0.6-3.3-1.9c-0.1-1.7,1.6-1.8,2.8-1.9c1.5-0.2,3.2,0.3,3.2,2.1
				C224.9,53.8,222.9,53.6,222.2,54.1z"/>
			<path fill="#F6B337" d="M259.2,215.1c-0.7,0-1.5-0.1-2.2-0.1c3.3-1.7,6.7-3.4,10-5.1c0.3,0.2,0.4,0.4,0.3,0.7
				c-0.1,0.2-0.2,0.3-0.3,0.3C264.9,213.2,262.3,214.6,259.2,215.1z"/>
			<path fill="#F3BE35" d="M123,61c0.4-1.5,0.5-2.8-1-3.8c1,0,2,0,3-0.1c0.6,3,2.1,6,0.1,9C123.1,64.9,124.4,62.4,123,61z"/>
			<path fill="#F5B034" d="M267,210.9c0-0.3,0-0.7,0-1c1.4-2.1,2.5-4.2,1.5-6.9C272.1,206.5,269.3,208.7,267,210.9z"/>
			<path fill="#F1AF37" d="M259.1,193.6c-2.5-1.6-5.4-2.5-7.5-4.6C254.7,189.6,257.6,190.5,259.1,193.6z"/>
			<path fill="#F7B236" d="M247.9,171.1c-0.4,0-0.8,0.1-1.2,0.1c-0.8-1.1-1.7-2.2-2.5-3.4c-0.6-0.6-0.7-1.2,0-1.9
				C246,167.2,247.2,169,247.9,171.1z"/>
			<path fill="#2C2C3C" d="M111,113.1c-0.1,1.3-0.2,2.6-1.8,3.5c-0.3-2.5-0.2-4.6,0.8-6.7C110.2,111,110,112.3,111,113.1z"/>
			<path fill="#F9E3BE" d="M128.1,142.6c0.3,1.6-0.7,2.5-1.7,3.5c-0.7,0.1-1.4,0.1-2.1,0.2C124.7,144.1,126.2,143.1,128.1,142.6z"/>
			<path fill="#795F3C" d="M106.9,158.9c1.3-0.5,2.7-2.9,3.9,0.1c-1.1,0.4-1.8,1.7-3.2,1.2C107.4,159.7,107.1,159.3,106.9,158.9z"/>
			<path fill="#886B40" d="M112.5,158c-1.1-2,0.4-2.4,1.7-2.9c0.5,0.3,0.9,0.6,1.4,1C114.5,156.7,113.5,157.3,112.5,158z"/>
			<path fill="#F3BE35" d="M117.1,81.1c0.9-3.3,3.5-1.6,5.5-1.9C121.1,80.9,118.6,79.5,117.1,81.1z"/>
			<path fill="#E2A73E" d="M97.1,172c0,2.1-0.1,4.2-0.1,6.3C95.7,176.2,95.8,174.1,97.1,172z"/>
			<path fill="#3B363C" d="M90.2,67.1c0.4-1,0.7-2,1.1-3c0.9-0.1,1.4,0.1,0.9,1.1c-0.1,1.4,0.2,2.9-0.9,4.1
				C90.9,68.7,90.6,67.9,90.2,67.1z"/>
			<path fill="#52453D" d="M101.3,65.2c-0.2,1.1,0,2.3-1.1,3.1c-0.3-0.7-0.6-1.4-0.9-2c0.3-1,0.6-2,0.9-3
				C102.1,63,101.5,64.2,101.3,65.2z"/>
			<path fill="#EDB735" d="M82.1,121.1c1.7,0,3.5,0.1,5.2,0.1C85.5,122.3,83.8,122.3,82.1,121.1z"/>
			<path fill="#F0B935" d="M49.2,74.4c-0.7-1.3-2-1.3-3.3-1.4c1.1-1.1,2.5-1.4,3.8-0.5C50.4,73,49.9,73.9,49.2,74.4z"/>
			<path fill="#E8B335" d="M244.1,74.2c-0.1-1.4-1-2-2.3-2.2c0.8-0.6,1.8-1.1,2.7-0.3C245.5,72.6,244.9,73.4,244.1,74.2z"/>
			<path fill="#F7B236" d="M244.1,166c0,0.6,0,1.3,0,1.9c-0.7-0.6-1.3-1.3-2-1.9c0.3-0.3,0.7-0.6,1-0.9
				C243.5,165.4,243.8,165.7,244.1,166z"/>
			<path fill="#F6B135" d="M105.1,162.3c-0.1,1.9-1.6,2.4-3,3.1C102.1,163.4,103.6,162.9,105.1,162.3z"/>
			<path fill="#1D243D" d="M161.5,145.7c-4,4.6-5.2,9-7,13.3c-0.7,1.6-1.1,3-3,3.6c-2.3,0.6-3.6,0.4-3-2.5
				c1.2-5.7,2.5-11.4,3.6-17.1c0.5-2.6,2.2-3.2,4.4-3c3.2,0.3-0.3,2.9,1.3,3.8c2.6-0.9,5.4-4,7.9-2.1c2.4,1.8,1.4,5.6,0.9,8.5
				c-0.8,4.7-1.6,9.5-2.5,14.2c-0.2,1.1-0.5,2.4-1.2,3.2c-1,1.2-2.7,1.8-4.1,1.2c-1.3-0.6-0.4-2-0.2-3.1
				C159.8,159.5,161.2,153.4,161.5,145.7z"/>
			<path fill="#1E243D" d="M142.3,172.7c-5.6,9.3-6.4,18.3-5,28.1c2.2-0.6,2.4-1.9,2.6-2.8c0.6-2.6,2.6-4.1,4.7-3.1
				c2.7,1.3,0.2,3.4-0.5,4.9c-1.8,3.5-5.1,4.8-8.8,4.1c-3.8-0.7-4.1-4-4.1-7.1c0-6.3,0.7-12.6,3-18.6c1.6-4.1,4.4-7,8.9-8
				c2.7-0.6,4.7,0.3,5.5,3c1.2,4.1-0.3,7.9-1.7,11.6c-0.6,1.5-2.6,1.8-4,1.2c-1.8-0.7-0.4-2.2-0.2-3.4
				C143.2,179.7,144,176.8,142.3,172.7z"/>
			<path fill="#1F253E" d="M177.9,198.3c0.7-0.1,1,0,1-0.1c1.1-1.9,1.8-4.4,4.8-4.2c1,0.1,1.6,0.4,1.4,1.5c-0.5,2.7-2.3,4.4-4.5,5.6
				c-2.1,1.2-4.4,2-6.7,0.8c-2.3-1.2-1.9-3.7-1.8-5.8c0.3-4.9,1.1-9.7,4.2-13.6c2.3-3,5.9-4.5,9.3-2.7c3.4,1.8,2.2,5.4,1.5,8.6
				c-0.5,2.2-2,3.2-4,2.9C177,190.2,177.5,194.1,177.9,198.3z"/>
			<path fill="#1E243D" d="M180.1,153.1c-1.7-2.8-4.3-5.3-2.3-9c1.5-2.7,3.8-4.1,6.9-4.2c2.1-0.1,4.8-0.4,5.3,2.3
				c0.5,2.6-0.6,4.9-3.3,5.9c-0.8,0.3-1.5,0.6-2.5,0.9c0.8,1.3,1.4,2.4,2.2,3.4c1.9,2.6,3.4,5.3,0.5,7.9c-3,2.7-6.7,3.8-10.5,1.7
				c-3.5-1.9-3.1-5,0.7-7.3c2.4,0,2.4,0,3.8,1.6C180.7,155.3,180.5,154.1,180.1,153.1z"/>
			<path fill="#1E243D" d="M194.5,199.8c1.7-8.8,3-17.9,5.6-26.6c0.5-1.5,0.5-3.4,2.2-4.2c1-0.5,2.1-1.2,3.3-0.7
				c1.7,0.7,0.6,2,0.4,3c-2,9.4-4.1,18.7-6.1,28.1c-0.5,2.5-2.4,3.1-4.4,3.1C193.8,202.4,194,201.1,194.5,199.8z"/>
			<path fill="#1F263F" d="M155,199.8c1.5-6.3,2.8-12.1,4.3-17.9c0.5-2.1,2.6-2.8,4.3-2.5c2.3,0.5,0.9,2.4,0.6,3.7
				c-1.3,5.5-2.7,10.9-4,16.3c-0.6,2.4-2.4,2.6-4.2,2.5C154.4,201.9,155.1,200.3,155,199.8z"/>
			<path fill="#DADADF" d="M180.1,153.1c0.6,0.7,1.4,1.4,1.9,2.3c0.7,1.3,1.6,2.6,0.8,4.2c-0.3,0.7-1.1,0.9-1.7,0.5
				c-1.4-0.8-2-2-1.7-3.7c0.4-2.1-1.5-0.9-2.3-1.4C178.1,154.3,179.1,153.7,180.1,153.1z"/>
			<path fill="#242A43" d="M161.9,176.5c-1.2-0.1-2.7-0.7-2.6-2.1c0.1-1.5,2-1.5,3.2-1.6c1.4-0.2,3.1,0.6,3.1,1.8
				C165.5,176.3,163.5,176.2,161.9,176.5z"/>
			<path fill="#AC8137" d="M101.3,65.2c-0.2-0.7-0.1-1.6-1.1-2c0.2-0.8,0.9-2,1.4-1.5C102.7,62.7,102,64.1,101.3,65.2z"/>
			<path fill="#443D3B" d="M92.2,65.3c-0.3-0.4-0.6-0.8-0.9-1.1c0.3-0.7,0.7-1.4,1-2.2C93.6,63.2,92.8,64.3,92.2,65.3z"/>
			<path fill="#24263C" d="M168,71.4c0.2-3.5,2-6.8,4.3-9.8c0.5-0.6,1-1.5,2-0.9c0.8,0.5,1,1.3,0.8,2.2c-0.6,3.4-0.9,6.9-1.8,10.2
				c-0.4,1.6-1.4,4-3.5,3.5C167.9,76.1,168.1,73.7,168,71.4z"/>
			<path fill="#23263B" d="M144,74.8c-0.6-6.1,0.7-10.6,4.2-14.6C151,64.6,150.4,66.7,144,74.8z"/>
			<path fill="#27293C" d="M123,61c1-0.7,2.1-1.5,2.2,0.7c0.1,1.5-0.1,3-0.1,4.5c-1.4,3.6-2.8,7.2-4.1,10.8
				c-1.2,0.7-2.5,1.8-2.8-0.7C120.3,71.2,120.1,65.6,123,61z"/>
			<path fill="#F3BE35" d="M118.2,76.1c0.6,1.4,1.8,0.9,2.8,0.7c-0.8,1.3-2,1.5-3.2,0.7C117.2,77.2,117.6,76.5,118.2,76.1z"/>
			<path fill="#EFEFF1" d="M133.7,142.5c3,5.2,1.5,9.7-4.4,14.5C128.7,151.7,130.7,147.4,133.7,142.5z"/>
			<path fill="#35313D" d="M64.4,76.4c-1-5.8,0.9-10.4,2.6-15.3C69.9,65.9,69.1,70.7,64.4,76.4z"/>
			<path fill="#2C2B3C" d="M241.6,59.2c0.2,3.3,1.5,5.4-1,7c-0.6,0.4-2,0.6-2.1-0.2C238.2,63.7,239.5,61.9,241.6,59.2z"/>
			<path fill="#34303D" d="M88.3,105c-0.8,0-1.2-0.4-1.2-1.2c0-0.9,0.1-1.7,1-2c1.1-0.4,1.4,0.6,1.4,1.3
				C89.6,103.9,89.1,104.6,88.3,105z"/>
			<path fill="#E3E3E7" d="M181.7,182.9c0.4,2.1,1.6,4.4-0.6,6c-0.4,0.3-1.7,0.1-1.8-0.1C178.4,186.2,180.2,184.6,181.7,182.9z"/>
			<path fill="#CACAD1" d="M183.4,147.4c-1.7-1.9-1.1-3.1,0-4.2c0.2-0.2,1,0,1.2,0.2C185.6,145,184.2,145.9,183.4,147.4z"/>
		</g>
	</g>
</g>
</svg>
